# xmcd
# 
# Track frame offsets:
#     150
#     14664
#     31611
#     50448
# 
# Disc length: 1284
# 
# Revision: 0
# Processed by: cddbd v1.5.2PL0 Copyright (c) Steve Scherf et al.
# Submitted via: fre:ac v1.0.17
# 
DISCID=27050204
DTITLE=Ordinary Boys - Talk Talk Talk
DYEAR=0
DGENRE=
TTITLE0=Talk Talk Talk
TTITLE1=Dreaming in Colour
TTITLE2=Summertime Blues
TTITLE3=Talk Talk Talk (Video)
EXTD=
EXTT0=
EXTT1=
EXTT2=
EXTT3=
PLAYORDER=
